# xmcd
#
# Track frame offsets:
#	150
#	12329
#	26047
#	41422
#
# Disc length: 747 seconds
#
# Revision: 1
# Processed by: cddbd v1.5.2PL0 Copyright (c) Steve Scherf et al.
# Submitted via: audiograbber 1.83.01
#
DISCID=2702e904
DTITLE=The sweptaways - A Christmas party
DYEAR=2007
DGENRE=Christmas
TTITLE0=Christmas party
TTITLE1=Lady December
TTITLE2=Cry cry christmas
TTITLE3=Silverbells
EXTD=
EXTT0=
EXTT1=
EXTT2=
EXTT3=
PLAYORDER=
